<svg xmlns:dc="http://purl.org/dc/elements/1.1/" xmlns:cc="http://creativecommons.org/ns#" xmlns:rdf="http://www.w3.org/1999/02/22-rdf-syntax-ns#" xmlns:svg="http://www.w3.org/2000/svg" xmlns="http://www.w3.org/2000/svg" xmlns:sodipodi="http://sodipodi.sourceforge.net/DTD/sodipodi-0.dtd" xmlns:inkscape="http://www.inkscape.org/namespaces/inkscape" version="1.1" x="0px" y="0px" viewBox="0 0 100 125"><g transform="translate(0,-952.36218)"><path style="text-indent:0;text-transform:none;direction:ltr;block-progression:tb;baseline-shift:baseline;color:#000000;enable-background:accumulate;" d="m 46.919487,959.362 c -23.6761,0 -42.9374998,19.29017 -42.9374998,43 0,23.6983 19.2456998,42.9813 42.9061998,43.0001 a 3.0003,3.0003 0 1 0 0,-6 c -20.4137,-0.016 -36.9061998,-16.5371 -36.9061998,-37.0001 0,-20.47297 16.5097998,-37 36.9374998,-37 15.7245,0 29.1309,9.79531 34.4687,23.625 l -6.8124,-3.96875 a 3.0041447,3.0041447 0 1 0 -3.0314,5.1875 l 12.5937,7.37501 a 3.0003,3.0003 0 0 0 4.1563,-1.1875 l 7.3437,-13.68751 a 3.0003,3.0003 0 0 0 -3,-4.4375 3.0003,3.0003 0 0 0 -2.3124,1.625 l -3.5313,6.5625 c -6.3191,-15.87456 -21.8016,-27.09375 -39.8749,-27.09375 z" fill="#000000" fill-opacity="1" stroke="none" marker="none" visibility="visible" display="inline" overflow="visible"/></g><text x="0" y="115" fill="#000000" font-size="5px" font-weight="bold" font-family="'Helvetica Neue', Helvetica, Arial-Unicode, Arial, Sans-serif">Created by il Capitano</text><text x="0" y="120" fill="#000000" font-size="5px" font-weight="bold" font-family="'Helvetica Neue', Helvetica, Arial-Unicode, Arial, Sans-serif">from the Noun Project</text></svg>